<mxfile host="" modified="2020-06-29T03:20:13.564Z" agent="5.0 (Macintosh; Intel Mac OS X 10_14_6) AppleWebKit/537.36 (KHTML, like Gecko) Code/1.46.1 Chrome/78.0.3904.130 Electron/7.3.1 Safari/537.36" etag="h4vGOyfi4BlzFitl_9QO" version="13.1.3">
    <diagram id="6hGFLwfOUW9BJ-s0fimq" name="Page-1">
        <mxGraphModel dx="1101" dy="732" grid="1" gridSize="10" guides="1" tooltips="1" connect="1" arrows="1" fold="1" page="1" pageScale="1" pageWidth="827" pageHeight="1169" math="0" shadow="0">
            <root>
                <mxCell id="0"/>
                <mxCell id="1" parent="0"/>
                <mxCell id="12" value="" style="whiteSpace=wrap;html=1;fillColor=#FFFFFF;strokeColor=#666666;gradientColor=#E3E3E3;" parent="1" vertex="1">
                    <mxGeometry x="9" y="10" width="810" height="670" as="geometry"/>
                </mxCell>
                <mxCell id="15" value="" style="shape=image;verticalLabelPosition=bottom;labelBackgroundColor=#ffffff;verticalAlign=top;aspect=fixed;imageAspect=0;image=https://www.edrawsoft.com/jp/networkdiagram/awsnon-servicespecific/client.png;" parent="1" vertex="1">
                    <mxGeometry x="271.5" y="4.5" width="97" height="97" as="geometry"/>
                </mxCell>
                <mxCell id="17" value="" style="shape=image;verticalLabelPosition=bottom;labelBackgroundColor=#ffffff;verticalAlign=top;aspect=fixed;imageAspect=0;image=https://www.edrawsoft.com/jp/networkdiagram/awsnon-servicespecific/user.png;" parent="1" vertex="1">
                    <mxGeometry x="314" y="3" width="100" height="100" as="geometry"/>
                </mxCell>
                <mxCell id="30" value="" style="shape=image;verticalLabelPosition=bottom;labelBackgroundColor=#ffffff;verticalAlign=top;aspect=fixed;imageAspect=0;image=https://www.edrawsoft.com/jp/networkdiagram/awsnon-servicespecific/internet.png;" parent="1" vertex="1">
                    <mxGeometry x="183" width="100" height="100" as="geometry"/>
                </mxCell>
                <mxCell id="34" value="" style="rounded=0;whiteSpace=wrap;html=1;fillColor=none;strokeColor=#000000;" parent="1" vertex="1">
                    <mxGeometry x="60" y="150.23" width="570" height="429.77" as="geometry"/>
                </mxCell>
                <mxCell id="14" value="" style="shape=image;verticalLabelPosition=bottom;labelBackgroundColor=#ffffff;verticalAlign=top;aspect=fixed;imageAspect=0;image=https://www.edrawsoft.com/jp/networkdiagram/awsnon-servicespecific/awscloud.png;" parent="1" vertex="1">
                    <mxGeometry y="95" width="100" height="100" as="geometry"/>
                </mxCell>
                <mxCell id="21" value="`" style="shape=image;verticalLabelPosition=bottom;labelBackgroundColor=#ffffff;verticalAlign=top;aspect=fixed;imageAspect=0;image=https://www.edrawsoft.com/jp/networkdiagram/awscomputeandnetworking/route53.png;" parent="1" vertex="1">
                    <mxGeometry x="183" y="95" width="100" height="100" as="geometry"/>
                </mxCell>
                <mxCell id="36" value="" style="rounded=0;whiteSpace=wrap;html=1;fillColor=none;strokeColor=#000000;" parent="1" vertex="1">
                    <mxGeometry x="130" y="230" width="480" height="330" as="geometry"/>
                </mxCell>
                <mxCell id="19" value="" style="shape=image;verticalLabelPosition=bottom;labelBackgroundColor=#ffffff;verticalAlign=top;aspect=fixed;imageAspect=0;image=https://www.edrawsoft.com/jp/networkdiagram/awsstoragecontentanddelivery/s3.png;" parent="1" vertex="1">
                    <mxGeometry x="40" y="371.88" width="100" height="100" as="geometry"/>
                </mxCell>
                <mxCell id="42" value="" style="edgeStyle=orthogonalEdgeStyle;rounded=0;orthogonalLoop=1;jettySize=auto;html=1;" parent="1" edge="1">
                    <mxGeometry relative="1" as="geometry">
                        <mxPoint x="618.5" y="190.23000000000002" as="targetPoint"/>
                        <mxPoint x="690" y="447" as="sourcePoint"/>
                    </mxGeometry>
                </mxCell>
                <mxCell id="27" value="" style="shape=image;verticalLabelPosition=bottom;labelBackgroundColor=#ffffff;verticalAlign=top;aspect=fixed;imageAspect=0;image=https://www.edrawsoft.com/jp/networkdiagram/awsnon-servicespecific/user.png;" parent="1" vertex="1">
                    <mxGeometry x="727" y="34" width="100" height="100" as="geometry"/>
                </mxCell>
                <mxCell id="26" value="" style="shape=image;verticalLabelPosition=bottom;labelBackgroundColor=#ffffff;verticalAlign=top;aspect=fixed;imageAspect=0;image=https://www.edrawsoft.com/jp/networkdiagram/awsnon-servicespecific/client.png;" parent="1" vertex="1">
                    <mxGeometry x="674.5" y="34" width="100" height="100" as="geometry"/>
                </mxCell>
                <mxCell id="63" value="" style="edgeStyle=orthogonalEdgeStyle;rounded=0;orthogonalLoop=1;jettySize=auto;html=1;strokeColor=#0D0D0D;" parent="1" source="24" target="56" edge="1">
                    <mxGeometry relative="1" as="geometry"/>
                </mxCell>
                <mxCell id="24" value="" style="shape=image;verticalLabelPosition=bottom;labelBackgroundColor=#ffffff;verticalAlign=top;aspect=fixed;imageAspect=0;image=https://www.edrawsoft.com/jp/networkdiagram/awscomputeandnetworking/elasticloadbalancing.png;" parent="1" vertex="1">
                    <mxGeometry x="183" y="180" width="100" height="100" as="geometry"/>
                </mxCell>
                <mxCell id="18" value="" style="shape=image;verticalLabelPosition=bottom;labelBackgroundColor=#ffffff;verticalAlign=top;aspect=fixed;imageAspect=0;image=https://www.edrawsoft.com/jp/networkdiagram/awsnon-servicespecific/virtualprivatecloud.png;" parent="1" vertex="1">
                    <mxGeometry x="83" y="180" width="100" height="100" as="geometry"/>
                </mxCell>
                <mxCell id="39" value="" style="shape=image;verticalLabelPosition=bottom;labelBackgroundColor=#ffffff;verticalAlign=top;aspect=fixed;imageAspect=0;image=data:image/svg+xml,PHN2ZyB4bWxucz0iaHR0cDovL3d3dy53My5vcmcvMjAwMC9zdmciIHhtbG5zOnhsaW5rPSJodHRwOi8vd3d3LnczLm9yZy8xOTk5L3hsaW5rIiB3aWR0aD0iMjQ2MiIgaGVpZ2h0PSIyNTAwIiB2aWV3Qm94PSIwIDAgMjU2IDI1OS4zIiBwcmVzZXJ2ZUFzcGVjdFJhdGlvPSJ4TWluWU1pbiBtZWV0Ij48cGF0aCBmaWxsPSIjOUVEQ0YyIiBkPSJNMjAwLjkgMTk5LjhjMCAxMy45LTMyLjIgMjUuMS03MS45IDI1LjFzLTcxLjktMTEuMy03MS45LTI1LjFjMC0xMy45IDMyLjItMjUuMSA3MS45LTI1LjFzNzEuOSAxMS4yIDcxLjkgMjUuMXptMCAwIi8+PGRlZnM+PHBhdGggaWQ9ImEiIGQ9Ik05OC4xIDI0NC44YzEuNiA3LjUgNS41IDExLjkgOS40IDE0LjVoNDEuMWM1LTMuNCAxMC4xLTkuOCAxMC4xLTIxLjh2LTMxcy42LTcuNyA3LjctMTAuMmMwIDAgNC4xLTIuOS0uMy00LjUgMCAwLTE5LjUtMS42LTE5LjUgMTQuNHYyMy42cy44IDguNy0zLjggMTIuM3YtMjkuMnMuMy05LjMgNS4xLTEyLjhjMCAwIDMuMi01LjctMy44LTQuMiAwIDAtMTMuNCAxLjktMTQgMTcuNmwtLjMgMzBoLTMuMmwtLjMtMzBjLS42LTE1LjYtMTQtMTcuNi0xNC0xNy42LTctMS42LTMuOCA0LjItMy44IDQuMiA0LjggMy41IDUuMSAxMi44IDUuMSAxMi44djI5LjVjLTQuNi0zLjMtMy44LTEyLjYtMy44LTEyLjZ2LTIzLjZjMC0xNi0xOS41LTE0LjQtMTkuNS0xNC40LTQuNSAxLjYtLjMgNC41LS4zIDQuNSA3IDIuNiA3LjcgMTAuMiA3LjcgMTAuMnYyMS43bC40IDE2LjZ6Ii8+PC9kZWZzPjxjbGlwUGF0aCBpZD0iYiI+PHVzZSB4bGluazpocmVmPSIjYSIgb3ZlcmZsb3c9InZpc2libGUiLz48L2NsaXBQYXRoPjxwYXRoIGNsaXAtcGF0aD0idXJsKCNiKSIgZmlsbD0iIzdEQkNFNyIgZD0iTTIwMC45IDE5OS44YzAgMTMuOS0zMi4yIDI1LjEtNzEuOSAyNS4xcy03MS45LTExLjMtNzEuOS0yNS4xYzAtMTMuOSAzMi4yLTI1LjEgNzEuOS0yNS4xczcxLjkgMTEuMiA3MS45IDI1LjF6bTAgMCIvPjxwYXRoIGZpbGw9IiM5RURDRjIiIGQ9Ik00Ni45IDEyNS45bC0yLjEgNy4ycy0uNSAyLjYgMS45IDMuMWMyLjYtLjEgMi40LTIuNSAyLjItMy4ybC0yLTcuMXptMCAwIi8+PHBhdGggZmlsbD0iIzAxMDEwMSIgZD0iTTI1NS44IDk1LjZsLjItLjljLTIxLjEtNC4yLTQyLjctNC4zLTU1LjgtMy43IDIuMS03LjcgMi44LTE2LjcgMi44LTI2LjYgMC0xNC4zLTUuNC0yNS43LTE0LTM0LjMgMS41LTQuOSAzLjUtMTUuOC0yLTI5LjcgMCAwLTkuOC0zLjEtMzIuMSAxMS44LTguNy0yLjItMTgtMy4zLTI3LjMtMy4zLTEwLjIgMC0yMC41IDEuMy0zMC4yIDMuOUM3NC40LTIuOSA2NC4zLjMgNjQuMy4zYy02LjYgMTYuNS0yLjUgMjguOC0xLjMgMzEuOC03LjggOC40LTEyLjUgMTkuMS0xMi41IDMyLjIgMCA5LjkgMS4xIDE4LjggMy45IDI2LjUtMTMuMi0uNS0zNC0uMy01NC40IDMuOGwuMi45YzIwLjQtNC4xIDQxLjQtNC4yIDU0LjUtMy43LjYgMS42IDEuMyAzLjIgMiA0LjctMTMgLjQtMzUuMSAyLjEtNTYuMyA4LjFsLjMuOWMyMS40LTYgNDMuNy03LjYgNTYuNi04IDcuOCAxNC40IDIzIDIzLjggNTAuMiAyNi43LTMuOSAyLjYtNy44IDctOS40IDE0LjUtNS4zIDIuNS0yMS45IDguNy0zMS45LTguNSAwIDAtNS42LTEwLjItMTYuMy0xMSAwIDAtMTAuNC0uMi0uNyA2LjUgMCAwIDYuOSAzLjMgMTEuNyAxNS42IDAgMCA2LjMgMjEgMzYuNCAxNC4yVjE3N3MtLjYgNy43LTcuNyAxMC4yYzAgMC00LjIgMi45LjMgNC41IDAgMCAxOS41IDEuNiAxOS41LTE0LjR2LTIzLjZzLS44LTkuNCAzLjgtMTIuNnYzOC44cy0uMyA5LjMtNS4xIDEyLjhjMCAwLTMuMiA1LjcgMy44IDQuMiAwIDAgMTMuNC0xLjkgMTQtMTcuNmwuMy0zOS4zaDMuMmwuMyAzOS4zYy42IDE1LjYgMTQgMTcuNiAxNCAxNy42IDcgMS42IDMuOC00LjIgMy44LTQuMi00LjgtMy41LTUuMS0xMi44LTUuMS0xMi44di0zOC41YzQuNiAzLjYgMy44IDEyLjMgMy44IDEyLjN2MjMuNmMwIDE2IDE5LjUgMTQuNCAxOS41IDE0LjQgNC41LTEuNi4zLTQuNS4zLTQuNS03LTIuNi03LjctMTAuMi03LjctMTAuMnYtMzFjMC0xMi4xLTUuMS0xOC41LTEwLjEtMjEuOCAyOS0yLjkgNDIuOS0xMi4yIDQ5LjMtMjYuOCAxMi43LjMgMzUuNiAxLjkgNTcuNCA4LjFsLjMtLjljLTIxLjctNi4xLTQ0LjQtNy43LTU3LjMtOC4xLjYtMS41IDEuMS0zIDEuNi00LjYgMTMuNC0uNSAzNS4xLS41IDU2LjMgMy43em0wIDAiLz48cGF0aCBmaWxsPSIjRjVDQ0IzIiBkPSJNMTc0LjYgNjMuN2M2LjIgNS43IDkuOSAxMi41IDkuOSAxOS44IDAgMzQuNC0yNS42IDM1LjMtNTcuMiAzNS4zUzcwLjEgMTE0IDcwLjEgODMuNWMwLTcuMyAzLjYtMTQuMSA5LjgtMTkuNyAxMC4zLTkuNCAyNy43LTQuNCA0Ny40LTQuNHMzNy01LjEgNDcuMyA0LjN6bTAgMCIvPjxwYXRoIGZpbGw9IiNGRkYiIGQ9Ik0xMDguMyA4NS4zYzAgOS41LTUuMyAxNy4xLTExLjkgMTcuMS02LjYgMC0xMS45LTcuNy0xMS45LTE3LjEgMC05LjUgNS4zLTE3LjEgMTEuOS0xNy4xIDYuNi0uMSAxMS45IDcuNiAxMS45IDE3LjF6bTAgMCIvPjxwYXRoIGZpbGw9IiNBRjVDNTEiIGQ9Ik0xMDQuNSA4NS41YzAgNi4zLTMuNiAxMS40LTcuOSAxMS40LTQuNCAwLTcuOS01LjEtNy45LTExLjQgMC02LjMgMy42LTExLjQgNy45LTExLjQgNC4zIDAgNy45IDUuMSA3LjkgMTEuNHptMCAwIi8+PHBhdGggZmlsbD0iI0ZGRiIgZD0iTTE3Mi4yIDg1LjNjMCA5LjUtNS4zIDE3LjEtMTEuOSAxNy4xLTYuNiAwLTExLjktNy43LTExLjktMTcuMSAwLTkuNSA1LjMtMTcuMSAxMS45LTE3LjEgNi41LS4xIDExLjkgNy42IDExLjkgMTcuMXptMCAwIi8+PHBhdGggZmlsbD0iI0FGNUM1MSIgZD0iTTE2OC4zIDg1LjVjMCA2LjMtMy42IDExLjQtNy45IDExLjQtNC40IDAtNy45LTUuMS03LjktMTEuNCAwLTYuMyAzLjYtMTEuNCA3LjktMTEuNCA0LjQgMCA3LjkgNS4xIDcuOSAxMS40em0wIDBNMTMwLjUgMTAwLjVjMCAxLjYtMS4zIDMtMyAzLTEuNiAwLTMtMS4zLTMtM3MxLjMtMyAzLTNjMS42IDAgMyAxLjMgMyAzem0wIDBNMTIwLjYgMTA4Yy0uMi0uNS4xLTEgLjYtMS4yLjUtLjIgMSAuMSAxLjIuNi44IDIuMiAyLjggMy42IDUuMSAzLjZzNC4zLTEuNSA1LjEtMy42Yy4yLS41LjctLjggMS4yLS42LjUuMi44LjcuNiAxLjItMSAyLjktMy44IDQuOS02LjkgNC45LTMuMSAwLTUuOS0yLTYuOS00Ljl6bTAgMCIvPjxwYXRoIGZpbGw9IiNDNEU1RDkiIGQ9Ik01NC41IDEyMS42YzAgLjgtLjkgMS40LTIuMSAxLjQtMS4xIDAtMi4xLS42LTIuMS0xLjQgMC0uOC45LTEuNCAyLjEtMS40IDEuMiAwIDIuMS42IDIuMSAxLjR6bTAgME02MC4zIDEyNC44YzAgLjgtLjkgMS40LTIuMSAxLjQtMS4xIDAtMi4xLS42LTIuMS0xLjQgMC0uOC45LTEuNCAyLjEtMS40IDEuMiAwIDIuMS42IDIuMSAxLjR6bTAgME02My44IDEyOWMwIC44LS45IDEuNC0yLjEgMS40LTEuMSAwLTIuMS0uNi0yLjEtMS40IDAtLjguOS0xLjQgMi4xLTEuNCAxLjItLjEgMi4xLjYgMi4xIDEuNHptMCAwTTY3IDEzMy44YzAgLjgtLjkgMS40LTIuMSAxLjQtMS4xIDAtMi4xLS42LTIuMS0xLjQgMC0uOC45LTEuNCAyLjEtMS40IDEuMi0uMSAyLjEuNiAyLjEgMS40em0wIDBNNzAuNSAxMzguMmMwIC44LS45IDEuNC0yLjEgMS40LTEuMSAwLTIuMS0uNi0yLjEtMS40IDAtLjguOS0xLjQgMi4xLTEuNCAxLjIgMCAyLjEuNiAyLjEgMS40em0wIDBNNzUuMyAxNDIuMWMwIC44LS45IDEuNC0yLjEgMS40LTEuMSAwLTIuMS0uNi0yLjEtMS40IDAtLjguOS0xLjQgMi4xLTEuNCAxLjItLjEgMi4xLjYgMi4xIDEuNHptMCAwTTgyIDE0NC42YzAgLjgtLjkgMS40LTIuMSAxLjQtMS4xIDAtMi4xLS42LTIuMS0xLjQgMC0uOC45LTEuNCAyLjEtMS40IDEuMiAwIDIuMS42IDIuMSAxLjR6bTAgME04OC43IDE0NC42YzAgLjgtLjkgMS40LTIuMSAxLjQtMS4xIDAtMi4xLS42LTIuMS0xLjQgMC0uOC45LTEuNCAyLjEtMS40IDEuMiAwIDIuMS42IDIuMSAxLjR6bTAgME05NS41IDE0My41YzAgLjgtLjkgMS40LTIuMSAxLjQtMS4xIDAtMi4xLS42LTIuMS0xLjQgMC0uOC45LTEuNCAyLjEtMS40IDEuMSAwIDIuMS42IDIuMSAxLjR6bTAgMCIvPjwvc3ZnPg==;" parent="1" vertex="1">
                    <mxGeometry x="690" y="351.8" width="69" height="70.08" as="geometry"/>
                </mxCell>
                <mxCell id="48" value="" style="endArrow=classic;startArrow=classic;html=1;strokeColor=#0D0D0D;" parent="1" edge="1">
                    <mxGeometry width="50" height="50" relative="1" as="geometry">
                        <mxPoint x="260" y="51" as="sourcePoint"/>
                        <mxPoint x="300" y="51" as="targetPoint"/>
                    </mxGeometry>
                </mxCell>
                <mxCell id="49" value="" style="endArrow=classic;startArrow=classic;html=1;strokeColor=#0D0D0D;" parent="1" edge="1">
                    <mxGeometry width="50" height="50" relative="1" as="geometry">
                        <mxPoint x="233" y="119" as="sourcePoint"/>
                        <mxPoint x="233" y="70" as="targetPoint"/>
                    </mxGeometry>
                </mxCell>
                <mxCell id="51" value="" style="endArrow=classic;startArrow=classic;html=1;strokeColor=#0D0D0D;" parent="1" edge="1">
                    <mxGeometry width="50" height="50" relative="1" as="geometry">
                        <mxPoint x="233" y="202" as="sourcePoint"/>
                        <mxPoint x="233" y="166.73000000000002" as="targetPoint"/>
                    </mxGeometry>
                </mxCell>
                <mxCell id="54" value="" style="shape=image;verticalLabelPosition=bottom;labelBackgroundColor=#ffffff;verticalAlign=top;aspect=fixed;imageAspect=0;image=https://cdn.worldvectorlogo.com/logos/capistrano.svg;" parent="1" vertex="1">
                    <mxGeometry x="701.5" y="610" width="52.5" height="55.15" as="geometry"/>
                </mxCell>
                <mxCell id="55" value="" style="shape=image;verticalLabelPosition=bottom;labelBackgroundColor=#ffffff;verticalAlign=top;aspect=fixed;imageAspect=0;image=https://img.icons8.com/color/2x/docker.png;" parent="1" vertex="1">
                    <mxGeometry x="701.5" y="120" width="50" height="50" as="geometry"/>
                </mxCell>
                <mxCell id="58" value="" style="rounded=0;whiteSpace=wrap;html=1;fillColor=#d5e8d4;strokeColor=#82b366;" parent="1" vertex="1">
                    <mxGeometry x="140" y="280" width="280" height="273.12" as="geometry"/>
                </mxCell>
                <mxCell id="59" value="" style="rounded=0;whiteSpace=wrap;html=1;fillColor=#dae8fc;strokeColor=#6c8ebf;" parent="1" vertex="1">
                    <mxGeometry x="435" y="280" width="150" height="273.12" as="geometry"/>
                </mxCell>
                <mxCell id="20" value="" style="shape=image;verticalLabelPosition=bottom;labelBackgroundColor=#ffffff;verticalAlign=top;aspect=fixed;imageAspect=0;image=https://www.edrawsoft.com/jp/networkdiagram/awsdatabase/rds.png;" parent="1" vertex="1">
                    <mxGeometry x="460" y="396.88" width="100" height="100" as="geometry"/>
                </mxCell>
                <mxCell id="56" value="" style="rounded=0;whiteSpace=wrap;html=1;fillColor=#ffe6cc;strokeColor=#d79b00;" parent="1" vertex="1">
                    <mxGeometry x="156" y="325" width="120" height="220" as="geometry"/>
                </mxCell>
                <mxCell id="60" value="" style="rounded=0;whiteSpace=wrap;html=1;fillColor=#fff2cc;strokeColor=#d6b656;" parent="1" vertex="1">
                    <mxGeometry x="172" y="365" width="83" height="150" as="geometry"/>
                </mxCell>
                <mxCell id="22" value="" style="shape=image;verticalLabelPosition=bottom;labelBackgroundColor=#ffffff;verticalAlign=top;aspect=fixed;imageAspect=0;image=https://www.edrawsoft.com/jp/networkdiagram/awscomputeandnetworking/amazonec2.png;" parent="1" vertex="1">
                    <mxGeometry x="116" y="285" width="100" height="100" as="geometry"/>
                </mxCell>
                <mxCell id="62" value="" style="endArrow=classic;startArrow=classic;html=1;strokeColor=#0D0D0D;" parent="1" edge="1">
                    <mxGeometry width="50" height="50" relative="1" as="geometry">
                        <mxPoint x="233" y="320" as="sourcePoint"/>
                        <mxPoint x="233" y="260" as="targetPoint"/>
                    </mxGeometry>
                </mxCell>
                <mxCell id="64" value="" style="endArrow=classic;startArrow=classic;html=1;strokeColor=#0D0D0D;" parent="1" edge="1">
                    <mxGeometry width="50" height="50" relative="1" as="geometry">
                        <mxPoint x="140" y="421" as="sourcePoint"/>
                        <mxPoint x="115" y="421" as="targetPoint"/>
                    </mxGeometry>
                </mxCell>
                <mxCell id="73" value="" style="endArrow=classic;html=1;strokeColor=#0D0D0D;strokeWidth=1;entryX=0.5;entryY=0;entryDx=0;entryDy=0;" parent="1" edge="1" target="39">
                    <mxGeometry width="50" height="50" relative="1" as="geometry">
                        <mxPoint x="724" y="169" as="sourcePoint"/>
                        <mxPoint x="725" y="352" as="targetPoint"/>
                    </mxGeometry>
                </mxCell>
                <mxCell id="76" value="" style="endArrow=classic;html=1;strokeColor=#0D0D0D;strokeWidth=1;" parent="1" edge="1" source="39">
                    <mxGeometry width="50" height="50" relative="1" as="geometry">
                        <mxPoint x="724" y="494" as="sourcePoint"/>
                        <mxPoint x="724" y="602" as="targetPoint"/>
                    </mxGeometry>
                </mxCell>
                <mxCell id="79" value="" style="endArrow=classic;html=1;strokeColor=#0D0D0D;strokeWidth=1;entryX=0.5;entryY=1;entryDx=0;entryDy=0;" parent="1" edge="1" target="56">
                    <mxGeometry width="50" height="50" relative="1" as="geometry">
                        <mxPoint x="690" y="645" as="sourcePoint"/>
                        <mxPoint x="263" y="545" as="targetPoint"/>
                        <Array as="points">
                            <mxPoint x="216" y="645"/>
                        </Array>
                    </mxGeometry>
                </mxCell>
                <mxCell id="84" value="" style="shape=image;verticalLabelPosition=bottom;labelBackgroundColor=#ffffff;verticalAlign=top;aspect=fixed;imageAspect=0;image=https://cdn.icon-icons.com/icons2/2107/PNG/128/file_type_rails_icon_130210.png;" vertex="1" parent="1">
                    <mxGeometry x="192.5" y="420.65" width="50" height="50" as="geometry"/>
                </mxCell>
                <mxCell id="85" value="" style="shape=image;verticalLabelPosition=bottom;labelBackgroundColor=#ffffff;verticalAlign=top;aspect=fixed;imageAspect=0;image=data:image/png,iVBORw0KGgoAAAANSUhEUgAAASkAAACqCAYAAADxyrlAAAAbJUlEQVR4Xu1dC2wVRRceggilPBIeBZSIQlEJaoGEQDUKiVqJacRHi8YHBqKkATU2gGikEmklND5q1JomGhpBYpSKIfLQRhLRSCEYBGMTIy8lCvKMSEtB9L9/viuLt7f7mNmdvXf27reJ0didmTPfOfvdMzNnzukm+BABIkAEDEagm8GyUTQiQASIgCBJ0QiIABEwGgGSlNHqoXBEgAiQpGgDRIAIGI0AScpo9VA4IkAESFK0ASJABIxGgCRltHrMFa69vT1x+PBhcezYMbFnz56koGfOnLkocO/evUVeXp64+uqrxbBhw0R+fj7+ob2Zq1JjJaPRGKsaswQ7evRoYt++fWLz5s1ix44dyX+3tbUlhezTp4+tsNbf8ceRI0eK66+/XkycOFFcc801YsqUKaKgoID2Z5aajZSGRmKkWswRqrm5ObFu3TqxadMmsX//fjF48GDRo0cP0atXL2Uhz549K86fP5/0vtAPiGrOnDmipKSEdqiMZnwa0Djio2vpmcJrWrt2raiqqrpIKH379pVuL/siSOvQoUPJ12tqapKERe9KFr34vEeSio+uPWeKfaZVq1aJBQsWJN8tKCjwbKPrhaNHjyaXj4sWLRLz588nWekCNgf6IUnlgBJ1TAHLumeffVbs3LkzuX+Uref06dOio6NDQJaFCxeKnj170kazpQxDxqUBGKKIbIkB72np0qWitrY2q+SUPn94VjgZbGxsFEVFRbTTbBmIAeNS+QYoIVsi7N69O3HPPfcIeC9h7DnpmBc261euXClmzpxJW9UBaAT7oOIjqDQdIq9ZsyZRXl5ulPfkNC8QFfaqamtraa86lB+xPqj0iClMh7h1dXWJysrKSBCUNV8s/6ZNmyaampposzqMIEJ9UOERUpYOUWtqahKLFy+OFEFZ88aydOzYsWLDhg2MXtdhDBHpgyQVEUXpELOhoSFRUVERSYJKJapJkyaJjz/+mCd/OowiAn2QpCKgJB0iRmkPymu+WPphP62xsZH26wVWDvydSs4BJXpNAad4RUVFkfag0ufIzXQvrefO30lSuaNL25kgDurKK680NsQgCPwgqubmZt79CwJiBNqSpCKgpCAizpo1K7F+/fqcJCkLl23btvEaTRAjMbwtScpwBQURL5f2oZxwwInfjBkzRH19PW05iLEY3JaKNVg5QUTDMg/5m+LwYNnX0tIiiouLac85qHAqNQeViikhHmr58uUZzWSQTSiHDBkCoqI9Z1MJIY1NpYYEbDa7hReFdL3ZzGaQ6fnDm1qzZg1CE2jTmQY/5PGo0JABzkb3uPaChHWZzAeVjXnajbl//37atCnK0CQHFaoJSFO6OXfuXGL48OE5fZrnhDVDEkyxQr1ykKT04pn13pC8rqSkJFZLPQt0pCO+4447GImedSvUKwBJSi+eWe+trKwssXXrVl+FErIuvAYBEJLQ2trKuCkNWJrSBUnKFE1okAMFFJAlwNQEdhqm6NkFk+R5QhS5F0hSkVOZs8BxXupZqDC4M4cM+sJUSFI5pNOqqqpEQ0NDrD0pqBN7UwcOHGAqlxyxbZJUjigSp3rYND548GCOzMj/NLDk2717Nws4+IfQqJYkKaPU4V+YOAZwOqGFfFOoMsPATv/2ZFJLkpRJ2gggi5UzKkAXOdUUwazV1dW07xzQKpWYA0rEFHCyt2vXrhyZTfBp4ISTF46D42hCDyQpE7RAGYgAEXBEgCSVA8YBL2rLli3i22+/zYHZBJ/C0KFDxeTJk8WECRN4whcczqz3QJLKugqCCYDLxMuWLRPHjh0TgwcPDtZZjrTu6OgQbW1tyatBKB/PDfRoK5YkFWH9IS6quro6lvf0ZNWGcATEjlVUVNDWZUEz7D0qzjCFyIrT0tKSKC4uJkFJAAai2rt3rygsLKS9S+Bl2itUmmkakZSntLQ0sXPnztheJJaEKfkarsrMnj0bSz/auwpwhrxLpRmiCBUxeJFYBa3/3mVCPH+4ZbsVSSrbGvAx/t69exPjxo2LZeZNH3Bd9KZ+/vlnkZ+fT5v3C2KW2lFhWQI+yLAkKXX0mGdKHTNTWpCkTNGEghwkKQWwLrwKkqInpY6bCS1IUiZoQVEGnOzdfvvtXO4p4AaSQm0+nvApgGbIqyQpQxQhKwYuEt90000kKFnA0t5rbm4mUfnELlvNSFLZQt7HuMgZNWbMGB8t2QQIIBneddddJ5qbm2n3ETIJKitCylqzZk2ivLxcOoCzvVs30SGEuOJ//4vQLOVFPdOtmzjerZvIE0LkJxJSDRnYKQWTUS+RpIxSh7swDQ0NiQULFkgt9UBQt549K0r//FOMOH06QrNUE/WXvn3F+n79xPpevcQgCaJibT41fE14myRlghYkZVi5cmVi7ty5niQFgrqvvV3M/f33pCcVh6dx6FDxcX6+p0dFkoqeNZCkIqQzWZIa9M8/YsUvv8SGoCwV3j9ypKc2SVKeEBn3AknKOJU4CyRDUvCinjp1Skw/fjxWJIV9qcYhQ8T7ffq4elMkqQgZ/AVRSVIR0pkMSWEj+eXjx8WEU6ciNDM9ojYPGiTe6N+fJKUHTmN6IUkZowpvQWRIip4UPSlvS4rWGySpCOlLhqQwnbjuSc266iqBsAS3h8u9CBk8l3vRU5YsScXNm8J+1Ns83YueQUtKTE9KEigTXpMlKcgKoirt6BClJ0+K4WfPJgMec/HZ06uXWD9ggFifl+cZfoD505OKnhWQpCKkM5VgTouo4hAnpRpxjvt7JSUltP2I2D4VFRFFQczm5uZESUmJ9LWYCE0tY6LyWkzGoNY2EElKG5Thd8QLxsEwRrqW8ePH84JxMBgz3poklXHIgw3IXFLB8Nu2bRuuFdHug8GY0dZUVkbh1jMYiUodRya9U8fMlBYkKVM0oSAH0wcrgHXhVaYPVsfMlBYkKVM0oSAHSUoBrBSSam1t5VJPHbqstyBJZV0F6gKQpNQxY7UYdcxMaUGSMkUTCnKwOKgCWBdeRergQ4cO0d7Voct6Cyot6yrwJ8CECRMSf/zxh7/GMWsFgrrxxhtFU1MT7T2CuqfSIqg0iKya7zyi09QiNgI4d+/eLYqKimjvWhDNbCdUWmbx1jrarFmzEo2NjYxAd0EVBFVTUyMWL15MW9dqfZnrjIrLHNbaR0IE+gsvvCBqa2tFnz59RL9+/bSPEdUO//zzT9HW1iYaGhpERUUF7TyqihRCUHkRVp4lOk77vvjiC4F/+AjRt29fMWnSJHHbbbexEGgOGARJKgeUyCkQgVxGgCSVY9rFPhU2iXv27NllZkeOHMHl2sh7F1VVVYkNGzY4zvGTTz7hJnkO2TVJKoeUiamUlZUltmzZklzypD+5kqZk0aJFifr6etv6g5hjS0uLKC4upm3niG1TkTmiSGsaIKmtW7eKXr165TRJrVixwpGISVK5ZdQkqdzSZ9KT0kVS7e3tiWeeeUacOXMmNJSwwa16+gZPiiQVmkqM65gkZZxKggmkk6TQ12effRZqaMOhQ4cQmCrKy8ulbZEkFcxGotZa2jCiNrG4yquLpEAEiL8aKVG6PCjWqvtIJKmgiEerPUkqWvrylFYHSdXU1CQWL17ciaBAJDofBJ8WFBRc7FJlU58kpVMT5vdFkjJfR0oS6iAplM6aOXNmJ5JavXq1QLoTHQ9OHvfs2SOsMXABGBv9suERJCkdWohOHySp6OhKSlIdJIWBrMo0+O+9e/eGEltVV1eXqKysRLiAWLdunXRCOpKUlCnkzEskqZxR5b8T0UVS6Gv37t0JnOyFGXOEWoKzZs1CYKa0LZKkcsxoPaYjbRjxgiW6s9VJUqaiQJIyVTPhyEWSCgfXrPVKkmLEedaML6SBSVIhAZutbjNBUiiptXnzZqUpnjt3TowePVpMmzZNeu/JaQB6UkrQR/5lklTkVdh5Al4kFTRDpXXyhxCCvLw8JfSOHTuWPDEMWqBz3rx5CVwidrr6E3SOSpPiy6EjQJIKHeLMDoAsCJ9//rnjB4xj/pKSEl96hweFk7ggAZ4IY5gyZUqgfOPFxcUJZHSwe1TirTKrGY7mFwFfxup3MLYLHwGkMUE2SrssCCCIGTNmiPr6emW9o0LNuHHjbMlPdVYgkqqqKlFdXe1LDgSBOhElS1epasP895WNxPwpxVtCrwINfj2NqVOnJn766SctJAUNQQ7VO3to57Yfhb9fccUVAp6kSkhDvC3G/NmTpMzXkZKE8HjcPA10NmTIEOXgSaf8TUrCpb189OhRsWvXLulAUS8Chhc1e/Zs5HynXQdRjGFtqUzDFKJDnJKSksQPP/zg6PXgYx47dqx49913PQnCixiCyIvrMCNGjEjmZs/Pz3e1RQR9VlRUuO6HqV5UDiI722YOAZJU5rDO2EiyG9z4qMvKysT9998vhg8f3kU+hBmkXzTWPQkQ1dChQ8Vzzz3XRQZrf2nZsmWio6PDNhNnqjzwEFtaWmjTupWU5f6o0CwrIKzhp0+fntixY4fnHhJIwir/lC7L4MGDbTfgw5AZSz+UoEp/0rMlOI1NLyoMrZjRJ0nKDD1olwJlrnAal5oORfsghnQIgnv00Ud9nVoaMgWK4YIASSqHzSPM/SRTYLP213iiZ4pG9MtBktKPqVE9ymw4GyWwgjAgqMLCQqmNd4Vu+aphCJCkDFNIGOJYHtVll13muUcVxvhh9Ik9qJKSEoHrMV4ng2GMzz4zhwBJKnNYZ3Uk7FE98sgjyZp0USYra4N95cqVyOxJ+82qVWVmcCo5MzgbMwoybr7yyiviu+++E7jwixM80x+EH+Dkb8KECWLOnDlCNUme6fOjfO4IkKRiaiGITEe099dffy3++usv2+N/E6BBCMJVV12VTDFcVFREezVBKRmWgUrPMOAcjggQATUESFJqePFtIkAEMowASSrDgDsNh5Lm7e3ttn8uKCigngzRE8XIPAI0/sxjbjsiMl6+//77nbJd/vPPP6J79+7inXfeCZxy15BpUgwioIwASUoZsnAagKQ++ugj2zimt99+myQVDuzsNQIIeJIUliHffPNNciqnTp1ynBKOiVMf1GuzHvwNS5n8/PykpzBw4MDkjfcbbriBgXgXQCJJZe5rwcnm4cOHBWw0SFXmC3cjPb+hzM0sN0fyBBgKffjhh8Wll17qCwEsV1IfLGHw4NgbfU6ePDkZ+xL3fReSlC/zkm6EH9uNGzeKL7/8Mlni3Xr82vWJEyfEqlWrPPNxSQvIFx0RkCKpuXPnhgYhUoXgef7550OtlBvaBDR1TJLSBKRNN6jEXF1dLWBr+NHs0aNH4MGQ3gbL8MLCQs9vKPBgMe/AE2B4UmGSlIX/8ePHpTJF5qq+SFLhaBYEtXDhQtGvXz+tA5CktMLp2pkxJHX+/HkxYMAA0djY6ClT5uDJ3EgkKf1Ynzt3Lply+OTJk1q8p1QJSVL69eXUoychuHlSIJb0DXMZ0bEPYFfYEYp/+eWXY3n9gSQlYzlq7yCN8pIlSxy9KNiv3weHSDI54v32z3b/IeCbpKBgnM4hI6LqgzQbqD6SvjeAPYPS0lJRUVHhKZfqmKa/T5LSr6G6uroENsrt9qBQl3DUqFEC5d/9PDj4mT9/fuwPfPxgp9rGkwycPCmQ1MSJE5Go37MPO6FQaTf9+Bd9XnvttbEsSUSSUjVd7/dhY3ZLPXjsCJyN+4myN4JmvOFJMGGQlLVXYBejgl84VOCNW3FHkpT+D6KsrCxh1ytIisny9OMdVo/GkRQmunr1apJUisbTI84R84NgxPTHOsHKloeAHzTIBBJweiAjgnozkU0zyiQliyVwzpa+nXQM2e1sALrv37+/8red0yQF7+TgwYO2WMouU5HR8r333gOwnfrBXsaTTz6pzUDcPCmMj48aaYA//PBDgXANpyBEK0j2lltuEQ888ECocTypAZKtra3SAb+WjJMmTRJ33nlnaPFxUSIprC62bNkiUOtw+/btSVuTCTQFlniA5a233iqmTJmiTAIyHlBVVVUi/RsYNGjQxf1jENObb76ZzE/mJjfkRTvUerzrrrukZM1pkqqpqUls27YtGcCX/qxbt85z7mhjnRDhOk/qg9Md3LXT9Svmtdx79dVXk9k0ZeN9sL8HGefNmyfKy8ul5ipjrNY7wAUyBQmQtE6HL7/8cuxDasPSkjEqJGUFm8L7gJ35CTa1sIR9LF++XPuPU3FxccKuPBq+IysWTUV22A2ywsro3dN4M70npXO5B5JCgUw7pTc1NXnOPZWk0slB9+arE0lhjw6nqPiFtQvb8CKWMIJkvY72vWRK/zs+MOjI8hhV2zu9HwWSgqeOYGmVD9wNHyusQnfmjKlTpybgAaU+1jfw+OOP+yJWENXYsWM9D8o8P1SSlH2sTaZIKugHq/vEFMuSGTNm+DJKt7mEEX4SBZKCjBZJB9W11R5Y4k6s7JaGzLh2JGWd8GO14ucHFOPKxEaSpDw05OQ1ZJKkYHQwArfgQ3gi1nt2U9KV7sXNi8L41h6JG6xOwbxoo9ObMp2kLC/KbgkfFEu0X7FihbYltB1JQV/Wcl+G6PCOn9hIkpThJAViWrp0qRg2bJinHezbt0+89NJLXX7VYEivv/66ln0KFBtdv3697S8nghtlqs9gbw1xSukGq/uqiekkhYMQkLKdFyKLpVNgNLB88cUXtR1KuHlSlZWVyVRMbg9OdGHHP/74Yye9y3j6JCnDSUrFu8DSfPbs2V2MXufHj1Oe77//vouhYd+surra054wH6ctBJDpU089haKfUv14sbbpJGUXEY+PFrnW6uvrpTGwmyewxG0QXYcmdiSlOobTDxz2Xd3u7HoCwT2p7O9JyS7V3EhK153IRYsWJfz8GqYSihtJ6fywTCcpu4Mdi6Ree+01qeN57BE+9NBDXfgaBIK9Q10FVElSFyDWnQkhF073AA1Jystnsv973ElK5z3Y2JEUTMrp7l6Q+4Dppho2SelMeuYVJyUTj0VPqrMFkKT0XdaPLEnhMjCiXFUfbPZt2rTJdqdfp7tPkvpXMzLHvLI65HJPFinv98Je7sXek4IKsDyzcpZ7q6TzG3YnGuhPZxCaDpJyyuyoczMayNCT+vc4W+ePFD2pmHtSqqTk9T4+ehR80LXRh/FIUvSk7OzOlCwI9KT+1U5op3tepKPydxgNLkjKHmHL9k2SIkmRpPQkkIzknpQsUbi9Zy0XdR6Vpo5HkiJJkaRiTlIqe1Lpe1BoO3XqVIEYD5mTKz+kSJIiSZGkYkxSVjj73Xff7VoFFutNFGNMLyEuEw7vh5joSdlHnDOY8z/L4J6U+pcVyeWeao5zO68GpzkIYaisrPSMfFeHlRvnFmYMQehsPSQp9a8pFiSF2/N2l191H+XTk6InZdkAQxBiHoKg6kkh1eyDDz7YJYDT2psKw5vinhT3pLgnFfM9KdUrLE6kAW/q008/lbpQqeKokqRIUiQpkpRS9j+36G2duW8swyRJkaRIUiQpJZKCwZSWlibswhHCKApKkiJJkaRIUsok5VT6Wne6UxgnSYokRZIiSSmTlNOST3dWRpJU57ggxkkxTkplPzf93ViEIFiTdsokGEZwJz2peHtSdjnLgAjjpNTpKlYkBXgyteTLFZKSraCSiRznTvmkdOU415mqxU5Wi6R0JixU/+T/beGWBUE2xznTB7skzVeNk0pVpNuST6eRIvG7XXI9yC5bwdip7JDOKG5g45ZPChVpUfYIFTfsnksuuSQZvuEUMKuzWoxT8QAcfKAaCOTw+mhBpnYFJXVXOHGrxiJbMsppLqdPnxarVq0KVIHHrSDsW2+9BX1LYYnioumP7txcTp4UkgPcd999yWoxdvYJ28QDu/D7A+cbhCAk5bbkU62U4fZBOBkpZMcv/4ABA7y+J3Hy5EmRXh3F+jXWtc/jRVL4eFMfp9p2qGfnVIZdNk+6FyDNzc2JN954o0tFGis/fe/evcWZM2ccu8Hfjxw5Yvt33bUMQYbIUSZbmt5r7ql/13FTwunH2ioWOmTIkEBY6vQW3erupdqjW93F/v3722bj9cqCEoikVFz8dANwWvLpNFR4QY899phILw8NWdwKbVqyIuso6sjhVzP9yaQnpfLxpL/rp0SS23hOS0qrjQyudmXvdRfhsOTBkipIhV0nLHSQlFc1aL9YWjLLbhPI2JcTScm0dXtH5jvKGkm5Lfm8mFUFmHnz5iV+/fVXX2XBLZd548aNXYhKBlwVOd2Weyr92JGp7kBZLKPXrl2r1UPRvdSzcMB1rCeeeEIcO3bMdylwO/x1kBT6hbePlNk6vT3IhuW0rpp7kDMMksL3NWLECM8ag1kjKUzcLrDTMoimpiZP2WQ+XnhTTz/9tOjevbsSUQFAeFEoWmi3ljadpPAr3NHRIe69915RUaEnViYVbxQJ3b59e+CPy5JTd+roVFlBVHV1deKrr74SWBKr2kKYJIW+4e1Btry8PCUbtfOaw9K5TpKydD569GixZMkSz3xynkQA9x6ejd2DlL+1tbWefTiRCX6R4ZL27Nmz0ysgAOSfKiws9N13aocgKvxa4aPq06dP8k8w1PTHKiqBdfX48eMFSl0jIR+WppAnVU7I2NjYKIqKirTIaGGB/FuyDz649MfaE4D8yPVVXFysRT47meAFwMv87bffkh+/9dhha/0tFWP8P8iJi+e6cHTDDnawdetW0draKlCS3to8d9tHcepPt41ir++DDz4QBw4cuGijTnbqhmVYOpfdk3LDHzhj62XMmDHi5ptvlq5ULWXA+CWyG9w6VZL9qNLfw5r877//tm0etG+7TmGkKKf1+++/Jzck8auT+uCXbODAgckPJ5UgneSUOX2RxcYaA6ck1pO+YW79LXVjOnW/DASHjenCwkKpkyFZ2bzes3A9deqUOHHiRBdcrfbAFw8wxgHJqFGjPH9Fvcb2+3c325PtU6f+rTHhFOzatUuYhqXb6d60adO6QJZuu3gBS1psnsucAKd2KEVSskrje0SACOQmAjqCOf0iQ5LyixzbEYEYIUCSipGyOVUiEEUESFJR1BplJgIxQoAkFSNlc6pEIIoIkKSiqDXKTARihABJKkbK5lSJQBQRIElFUWuUmQjECAGSVIyUzakSgSgiQJKKotYoMxGIEQIkqRgpm1MlAlFEoLi4OFFQUNBJdFwr051twQ4bRpxH0WIoMxHIMALIF59OUm1tbWL69OnSF4X9ikyS8osc2xEBIpARBEhSGYGZgxABIuAXAZKUX+TYjggQgYwgQJLKCMwchAgQAb8IkKT8Isd2RIAIZASB/wNzd1j1Dyc8VAAAAABJRU5ErkJggg==;" vertex="1" parent="1">
                    <mxGeometry x="600" y="65.9" width="101.5" height="58.1" as="geometry"/>
                </mxCell>
                <mxCell id="86" value="" style="rounded=0;whiteSpace=wrap;html=1;fillColor=#ffe6cc;strokeColor=#d79b00;" vertex="1" parent="1">
                    <mxGeometry x="294" y="325" width="120" height="220" as="geometry"/>
                </mxCell>
                <mxCell id="87" value="" style="shape=image;verticalLabelPosition=bottom;labelBackgroundColor=#ffffff;verticalAlign=top;aspect=fixed;imageAspect=0;image=https://www.edrawsoft.com/jp/networkdiagram/awscomputeandnetworking/amazonec2.png;" vertex="1" parent="1">
                    <mxGeometry x="254" y="285" width="100" height="100" as="geometry"/>
                </mxCell>
                <mxCell id="61" value="" style="rounded=0;whiteSpace=wrap;html=1;fillColor=#fff2cc;strokeColor=#d6b656;" parent="1" vertex="1">
                    <mxGeometry x="316.5" y="365" width="68.5" height="150" as="geometry"/>
                </mxCell>
                <mxCell id="37" value="" style="shape=image;verticalLabelPosition=bottom;labelBackgroundColor=#ffffff;verticalAlign=top;aspect=fixed;imageAspect=0;image=https://cdn.icon-icons.com/icons2/2107/PNG/128/file_type_rails_icon_130210.png;" parent="1" vertex="1">
                    <mxGeometry x="325.75" y="421.88" width="50" height="50" as="geometry"/>
                </mxCell>
                <mxCell id="88" value="" style="endArrow=classic;startArrow=classic;html=1;strokeColor=#0D0D0D;exitX=1;exitY=0.39;exitDx=0;exitDy=0;exitPerimeter=0;" edge="1" parent="1" source="87">
                    <mxGeometry width="50" height="50" relative="1" as="geometry">
                        <mxPoint x="260" y="310" as="sourcePoint"/>
                        <mxPoint x="260" y="250" as="targetPoint"/>
                    </mxGeometry>
                </mxCell>
                <mxCell id="91" value="" style="endArrow=classic;html=1;strokeColor=#0D0D0D;strokeWidth=1;" edge="1" parent="1">
                    <mxGeometry width="50" height="50" relative="1" as="geometry">
                        <mxPoint x="700" y="645" as="sourcePoint"/>
                        <mxPoint x="354" y="545" as="targetPoint"/>
                        <Array as="points">
                            <mxPoint x="354" y="645"/>
                        </Array>
                    </mxGeometry>
                </mxCell>
                <mxCell id="70" value="" style="endArrow=classic;startArrow=classic;html=1;strokeColor=#0D0D0D;" parent="1" edge="1">
                    <mxGeometry width="50" height="50" relative="1" as="geometry">
                        <mxPoint x="475" y="445.15" as="sourcePoint"/>
                        <mxPoint x="420" y="445.15" as="targetPoint"/>
                    </mxGeometry>
                </mxCell>
            </root>
        </mxGraphModel>
    </diagram>
</mxfile>